<svg xmlns="http://www.w3.org/2000/svg" xmlns:xlink="http://www.w3.org/1999/xlink" width="1550" zoomAndPan="magnify" viewBox="0 0 1162.5 239.999995" height="320" preserveAspectRatio="xMidYMid meet" version="1.2"><defs/><g id="cbe6690e30"><g style="fill:#ffffe3;fill-opacity:1;"><g transform="translate(-0.739433, 214.622309)"><path style="stroke:none" d="M 6.855469 -194.304688 L 66.492188 -194.304688 L 66.492188 -126.867188 L 41.84375 -126.867188 L 41.84375 -172.242188 L 44.15625 -172.242188 L 44.15625 -169.929688 L 26.605469 -169.929688 L 26.605469 -172.242188 L 28.917969 -172.242188 L 28.917969 -19.746094 L 26.605469 -19.746094 L 26.605469 -22.0625 L 44.15625 -22.0625 L 44.15625 -19.746094 L 41.84375 -19.746094 L 41.84375 -65.121094 L 66.492188 -65.121094 L 66.492188 2.3125 L 4.542969 2.3125 L 4.542969 -194.304688 Z M 6.855469 -189.675781 L 6.855469 -191.988281 L 9.171875 -191.988281 L 9.171875 0 L 6.855469 0 L 6.855469 -2.3125 L 64.179688 -2.3125 L 64.179688 0 L 61.867188 0 L 61.867188 -62.808594 L 64.179688 -62.808594 L 64.179688 -60.492188 L 44.15625 -60.492188 L 44.15625 -62.808594 L 46.472656 -62.808594 L 46.472656 -17.433594 L 24.289062 -17.433594 L 24.289062 -174.558594 L 46.472656 -174.558594 L 46.472656 -129.183594 L 44.15625 -129.183594 L 44.15625 -131.496094 L 64.179688 -131.496094 L 64.179688 -129.183594 L 61.867188 -129.183594 L 61.867188 -191.988281 L 64.179688 -191.988281 L 64.179688 -189.675781 Z M 6.855469 -189.675781 "/></g></g><g style="fill:#ffffe3;fill-opacity:1;"><g transform="translate(70.296766, 214.622309)"><path style="stroke:none" d="M 64.179688 -75.304688 L 47.449219 -75.304688 L 47.449219 -77.617188 L 49.710938 -78.105469 L 67.046875 2.3125 L 42.289062 2.3125 L 25.164062 -77.132812 L 27.425781 -77.617188 L 27.425781 -75.304688 L 26.605469 -75.304688 L 26.605469 -77.617188 L 28.917969 -77.617188 L 28.917969 2.3125 L 4.542969 2.3125 L 4.542969 -194.304688 L 66.492188 -194.304688 L 66.492188 -75.304688 Z M 64.179688 -79.933594 L 64.179688 -77.617188 L 61.867188 -77.617188 L 61.867188 -191.988281 L 64.179688 -191.988281 L 64.179688 -189.675781 L 6.855469 -189.675781 L 6.855469 -191.988281 L 9.171875 -191.988281 L 9.171875 0 L 6.855469 0 L 6.855469 -2.3125 L 26.605469 -2.3125 L 26.605469 0 L 24.289062 0 L 24.289062 -79.933594 L 29.296875 -79.933594 L 46.417969 -0.488281 L 44.15625 0 L 44.15625 -2.3125 L 64.179688 -2.3125 L 64.179688 0 L 61.917969 0.488281 L 44.582031 -79.933594 Z M 44.15625 -169.929688 L 26.605469 -169.929688 L 26.605469 -172.242188 L 28.917969 -172.242188 L 28.917969 -97.367188 L 26.605469 -97.367188 L 26.605469 -99.679688 L 44.15625 -99.679688 L 44.15625 -97.367188 L 41.84375 -97.367188 L 41.84375 -172.242188 L 44.15625 -172.242188 Z M 46.472656 -174.558594 L 46.472656 -95.050781 L 24.289062 -95.050781 L 24.289062 -174.558594 Z M 46.472656 -174.558594 "/></g></g><g style="fill:#ffffe3;fill-opacity:1;"><g transform="translate(141.332965, 214.622309)"><path style="stroke:none" d="M 57.324219 -169.929688 L 26.605469 -169.929688 L 26.605469 -172.242188 L 28.917969 -172.242188 L 28.917969 -129.183594 L 26.605469 -129.183594 L 26.605469 -131.496094 L 59.636719 -131.496094 L 59.636719 -107.121094 L 26.605469 -107.121094 L 26.605469 -109.433594 L 28.917969 -109.433594 L 28.917969 -19.746094 L 26.605469 -19.746094 L 26.605469 -22.0625 L 59.636719 -22.0625 L 59.636719 2.3125 L 4.542969 2.3125 L 4.542969 -194.304688 L 59.636719 -194.304688 L 59.636719 -169.929688 Z M 57.324219 -174.558594 L 57.324219 -172.242188 L 55.007812 -172.242188 L 55.007812 -191.988281 L 57.324219 -191.988281 L 57.324219 -189.675781 L 6.855469 -189.675781 L 6.855469 -191.988281 L 9.171875 -191.988281 L 9.171875 0 L 6.855469 0 L 6.855469 -2.3125 L 57.324219 -2.3125 L 57.324219 0 L 55.007812 0 L 55.007812 -19.746094 L 57.324219 -19.746094 L 57.324219 -17.433594 L 24.289062 -17.433594 L 24.289062 -111.75 L 57.324219 -111.75 L 57.324219 -109.433594 L 55.007812 -109.433594 L 55.007812 -129.183594 L 57.324219 -129.183594 L 57.324219 -126.867188 L 24.289062 -126.867188 L 24.289062 -174.558594 Z M 57.324219 -174.558594 "/></g></g><g style="fill:#ffffe3;fill-opacity:1;"><g transform="translate(205.786655, 214.622309)"><path style="stroke:none" d="M 45.964844 0.203125 L 43.222656 -30.789062 L 45.527344 -30.992188 L 45.527344 -28.679688 L 26.878906 -28.679688 L 26.878906 -30.992188 L 29.183594 -30.769531 L 25.960938 2.3125 L 1.585938 2.3125 L 19 -194.304688 L 53.132812 -194.304688 L 70.546875 2.3125 L 46.152344 2.3125 Z M 50.578125 -0.203125 L 48.273438 0 L 48.273438 -2.3125 L 68.019531 -2.3125 L 68.019531 0 L 65.714844 0.203125 L 48.710938 -191.785156 L 51.015625 -191.988281 L 51.015625 -189.675781 L 21.117188 -189.675781 L 21.117188 -191.988281 L 23.425781 -191.785156 L 6.417969 0.203125 L 4.113281 0 L 4.113281 -2.3125 L 23.863281 -2.3125 L 23.863281 0 L 21.558594 -0.222656 L 24.777344 -33.308594 L 47.648438 -33.308594 Z M 28.523438 -53.054688 L 43.609375 -53.054688 L 43.609375 -50.738281 L 41.304688 -50.539062 L 33.898438 -136.113281 L 36.203125 -136.3125 L 38.507812 -136.105469 L 30.828125 -50.535156 L 28.523438 -50.738281 Z M 25.992188 -48.425781 L 33.898438 -136.519531 L 38.507812 -136.511719 L 46.132812 -48.425781 Z M 25.992188 -48.425781 "/></g></g><g style="fill:#ffffe3;fill-opacity:1;"><g transform="translate(269.966037, 214.622309)"><path style="stroke:none" d="M 59.636719 -191.988281 L 59.636719 -169.929688 L 40.042969 -169.929688 L 40.042969 -172.242188 L 42.359375 -172.242188 L 42.359375 2.3125 L 17.707031 2.3125 L 17.707031 -172.242188 L 20.023438 -172.242188 L 20.023438 -169.929688 L 0.429688 -169.929688 L 0.429688 -194.304688 L 59.636719 -194.304688 Z M 55.007812 -191.988281 L 57.324219 -191.988281 L 57.324219 -189.675781 L 2.742188 -189.675781 L 2.742188 -191.988281 L 5.058594 -191.988281 L 5.058594 -172.242188 L 2.742188 -172.242188 L 2.742188 -174.558594 L 22.335938 -174.558594 L 22.335938 0 L 20.023438 0 L 20.023438 -2.3125 L 40.042969 -2.3125 L 40.042969 0 L 37.730469 0 L 37.730469 -174.558594 L 57.324219 -174.558594 L 57.324219 -172.242188 L 55.007812 -172.242188 Z M 55.007812 -191.988281 "/></g></g><g style="fill:#ffffe3;fill-opacity:1;"><g transform="translate(330.305634, 214.622309)"><path style="stroke:none" d="M 4.542969 -194.304688 L 28.917969 -194.304688 L 28.917969 2.3125 L 4.542969 2.3125 Z M 9.171875 -189.675781 L 9.171875 -2.3125 L 24.289062 -2.3125 L 24.289062 -189.675781 Z M 9.171875 -189.675781 "/></g></g><g style="fill:#ffffe3;fill-opacity:1;"><g transform="translate(364.040991, 214.622309)"><path style="stroke:none" d="M 48.273438 -194.304688 L 70.546875 -194.304688 L 53.132812 2.3125 L 19 2.3125 L 1.585938 -194.304688 L 25.976562 -194.304688 L 38.507812 -55.886719 L 36.203125 -55.675781 L 33.898438 -55.882812 L 46.152344 -194.304688 Z M 48.273438 -189.675781 L 48.273438 -191.988281 L 50.578125 -191.785156 L 38.507812 -55.472656 L 33.898438 -55.46875 L 21.558594 -191.78125 L 23.863281 -191.988281 L 23.863281 -189.675781 L 4.113281 -189.675781 L 4.113281 -191.988281 L 6.417969 -192.195312 L 23.425781 -0.203125 L 21.117188 0 L 21.117188 -2.3125 L 51.015625 -2.3125 L 51.015625 0 L 48.710938 -0.203125 L 65.714844 -192.195312 L 68.019531 -191.988281 L 68.019531 -189.675781 Z M 48.273438 -189.675781 "/></g></g><g style="fill:#ffffe3;fill-opacity:1;"><g transform="translate(436.448516, 214.622309)"><path style="stroke:none" d="M 57.324219 -169.929688 L 26.605469 -169.929688 L 26.605469 -172.242188 L 28.917969 -172.242188 L 28.917969 -129.183594 L 26.605469 -129.183594 L 26.605469 -131.496094 L 59.636719 -131.496094 L 59.636719 -107.121094 L 26.605469 -107.121094 L 26.605469 -109.433594 L 28.917969 -109.433594 L 28.917969 -19.746094 L 26.605469 -19.746094 L 26.605469 -22.0625 L 59.636719 -22.0625 L 59.636719 2.3125 L 4.542969 2.3125 L 4.542969 -194.304688 L 59.636719 -194.304688 L 59.636719 -169.929688 Z M 57.324219 -174.558594 L 57.324219 -172.242188 L 55.007812 -172.242188 L 55.007812 -191.988281 L 57.324219 -191.988281 L 57.324219 -189.675781 L 6.855469 -189.675781 L 6.855469 -191.988281 L 9.171875 -191.988281 L 9.171875 0 L 6.855469 0 L 6.855469 -2.3125 L 57.324219 -2.3125 L 57.324219 0 L 55.007812 0 L 55.007812 -19.746094 L 57.324219 -19.746094 L 57.324219 -17.433594 L 24.289062 -17.433594 L 24.289062 -111.75 L 57.324219 -111.75 L 57.324219 -109.433594 L 55.007812 -109.433594 L 55.007812 -129.183594 L 57.324219 -129.183594 L 57.324219 -126.867188 L 24.289062 -126.867188 L 24.289062 -174.558594 Z M 57.324219 -174.558594 "/></g></g><g style="fill:#ffffe3;fill-opacity:1;"><g transform="translate(500.902228, 214.622309)"><path style="stroke:none" d=""/></g></g><g style="fill:#ffffe3;fill-opacity:1;"><g transform="translate(544.511291, 214.622309)"><path style="stroke:none" d="M 44.15625 -151.519531 L 66.492188 -151.519531 L 66.492188 2.3125 L 4.542969 2.3125 L 4.542969 -194.304688 L 47.042969 -194.304688 L 67.710938 -146.890625 L 42.632812 -146.890625 L 32.15625 -171.332031 L 34.285156 -172.242188 L 34.285156 -169.929688 L 26.605469 -169.929688 L 26.605469 -172.242188 L 28.917969 -172.242188 L 28.917969 -19.746094 L 26.605469 -19.746094 L 26.605469 -22.0625 L 44.15625 -22.0625 L 44.15625 -19.746094 L 41.84375 -19.746094 L 41.84375 -151.519531 Z M 44.15625 -146.890625 L 44.15625 -149.203125 L 46.472656 -149.203125 L 46.472656 -17.433594 L 24.289062 -17.433594 L 24.289062 -174.558594 L 35.808594 -174.558594 L 46.285156 -150.117188 L 44.15625 -149.203125 L 44.15625 -151.519531 L 64.179688 -151.519531 L 64.179688 -149.203125 L 62.058594 -148.277344 L 43.40625 -191.066406 L 45.527344 -191.988281 L 45.527344 -189.675781 L 6.855469 -189.675781 L 6.855469 -191.988281 L 9.171875 -191.988281 L 9.171875 0 L 6.855469 0 L 6.855469 -2.3125 L 64.179688 -2.3125 L 64.179688 0 L 61.867188 0 L 61.867188 -149.203125 L 64.179688 -149.203125 L 64.179688 -146.890625 Z M 44.15625 -146.890625 "/></g></g><g style="fill:#ffffe3;fill-opacity:1;"><g transform="translate(615.547502, 214.622309)"><path style="stroke:none" d="M 57.324219 -169.929688 L 26.605469 -169.929688 L 26.605469 -172.242188 L 28.917969 -172.242188 L 28.917969 -129.183594 L 26.605469 -129.183594 L 26.605469 -131.496094 L 59.636719 -131.496094 L 59.636719 -107.121094 L 26.605469 -107.121094 L 26.605469 -109.433594 L 28.917969 -109.433594 L 28.917969 -19.746094 L 26.605469 -19.746094 L 26.605469 -22.0625 L 59.636719 -22.0625 L 59.636719 2.3125 L 4.542969 2.3125 L 4.542969 -194.304688 L 59.636719 -194.304688 L 59.636719 -169.929688 Z M 57.324219 -174.558594 L 57.324219 -172.242188 L 55.007812 -172.242188 L 55.007812 -191.988281 L 57.324219 -191.988281 L 57.324219 -189.675781 L 6.855469 -189.675781 L 6.855469 -191.988281 L 9.171875 -191.988281 L 9.171875 0 L 6.855469 0 L 6.855469 -2.3125 L 57.324219 -2.3125 L 57.324219 0 L 55.007812 0 L 55.007812 -19.746094 L 57.324219 -19.746094 L 57.324219 -17.433594 L 24.289062 -17.433594 L 24.289062 -111.75 L 57.324219 -111.75 L 57.324219 -109.433594 L 55.007812 -109.433594 L 55.007812 -129.183594 L 57.324219 -129.183594 L 57.324219 -126.867188 L 24.289062 -126.867188 L 24.289062 -174.558594 Z M 57.324219 -174.558594 "/></g></g><g style="fill:#ffffe3;fill-opacity:1;"><g transform="translate(680.001171, 214.622309)"><path style="stroke:none" d="M 48.273438 -194.304688 L 70.546875 -194.304688 L 53.132812 2.3125 L 19 2.3125 L 1.585938 -194.304688 L 25.976562 -194.304688 L 38.507812 -55.886719 L 36.203125 -55.675781 L 33.898438 -55.882812 L 46.152344 -194.304688 Z M 48.273438 -189.675781 L 48.273438 -191.988281 L 50.578125 -191.785156 L 38.507812 -55.472656 L 33.898438 -55.46875 L 21.558594 -191.78125 L 23.863281 -191.988281 L 23.863281 -189.675781 L 4.113281 -189.675781 L 4.113281 -191.988281 L 6.417969 -192.195312 L 23.425781 -0.203125 L 21.117188 0 L 21.117188 -2.3125 L 51.015625 -2.3125 L 51.015625 0 L 48.710938 -0.203125 L 65.714844 -192.195312 L 68.019531 -191.988281 L 68.019531 -189.675781 Z M 48.273438 -189.675781 "/></g></g><g style="fill:#ffffe3;fill-opacity:1;"><g transform="translate(752.408696, 214.622309)"><path style="stroke:none" d="M 57.324219 -169.929688 L 26.605469 -169.929688 L 26.605469 -172.242188 L 28.917969 -172.242188 L 28.917969 -129.183594 L 26.605469 -129.183594 L 26.605469 -131.496094 L 59.636719 -131.496094 L 59.636719 -107.121094 L 26.605469 -107.121094 L 26.605469 -109.433594 L 28.917969 -109.433594 L 28.917969 -19.746094 L 26.605469 -19.746094 L 26.605469 -22.0625 L 59.636719 -22.0625 L 59.636719 2.3125 L 4.542969 2.3125 L 4.542969 -194.304688 L 59.636719 -194.304688 L 59.636719 -169.929688 Z M 57.324219 -174.558594 L 57.324219 -172.242188 L 55.007812 -172.242188 L 55.007812 -191.988281 L 57.324219 -191.988281 L 57.324219 -189.675781 L 6.855469 -189.675781 L 6.855469 -191.988281 L 9.171875 -191.988281 L 9.171875 0 L 6.855469 0 L 6.855469 -2.3125 L 57.324219 -2.3125 L 57.324219 0 L 55.007812 0 L 55.007812 -19.746094 L 57.324219 -19.746094 L 57.324219 -17.433594 L 24.289062 -17.433594 L 24.289062 -111.75 L 57.324219 -111.75 L 57.324219 -109.433594 L 55.007812 -109.433594 L 55.007812 -129.183594 L 57.324219 -129.183594 L 57.324219 -126.867188 L 24.289062 -126.867188 L 24.289062 -174.558594 Z M 57.324219 -174.558594 "/></g></g><g style="fill:#ffffe3;fill-opacity:1;"><g transform="translate(816.862408, 214.622309)"><path style="stroke:none" d="M 44.15625 -65.121094 L 66.492188 -65.121094 L 66.492188 2.3125 L 4.542969 2.3125 L 4.542969 -194.304688 L 28.917969 -194.304688 L 28.917969 -19.746094 L 26.605469 -19.746094 L 26.605469 -22.0625 L 44.15625 -22.0625 L 44.15625 -19.746094 L 41.84375 -19.746094 L 41.84375 -65.121094 Z M 44.15625 -60.492188 L 44.15625 -62.808594 L 46.472656 -62.808594 L 46.472656 -17.433594 L 24.289062 -17.433594 L 24.289062 -191.988281 L 26.605469 -191.988281 L 26.605469 -189.675781 L 6.855469 -189.675781 L 6.855469 -191.988281 L 9.171875 -191.988281 L 9.171875 0 L 6.855469 0 L 6.855469 -2.3125 L 64.179688 -2.3125 L 64.179688 0 L 61.867188 0 L 61.867188 -62.808594 L 64.179688 -62.808594 L 64.179688 -60.492188 Z M 44.15625 -60.492188 "/></g></g><g style="fill:#ffffe3;fill-opacity:1;"><g transform="translate(885.155903, 214.622309)"><path style="stroke:none" d="M 6.855469 -194.304688 L 66.492188 -194.304688 L 66.492188 2.3125 L 4.542969 2.3125 L 4.542969 -194.304688 Z M 6.855469 -189.675781 L 6.855469 -191.988281 L 9.171875 -191.988281 L 9.171875 0 L 6.855469 0 L 6.855469 -2.3125 L 64.179688 -2.3125 L 64.179688 0 L 61.867188 0 L 61.867188 -191.988281 L 64.179688 -191.988281 L 64.179688 -189.675781 Z M 26.605469 -22.0625 L 44.15625 -22.0625 L 44.15625 -19.746094 L 41.84375 -19.746094 L 41.84375 -172.242188 L 44.15625 -172.242188 L 44.15625 -169.929688 L 26.605469 -169.929688 L 26.605469 -172.242188 L 28.917969 -172.242188 L 28.917969 -19.746094 L 26.605469 -19.746094 Z M 24.289062 -17.433594 L 24.289062 -174.558594 L 46.472656 -174.558594 L 46.472656 -17.433594 Z M 24.289062 -17.433594 "/></g></g><g style="fill:#ffffe3;fill-opacity:1;"><g transform="translate(956.192114, 214.622309)"><path style="stroke:none" d="M 6.855469 -194.304688 L 66.492188 -194.304688 L 66.492188 -75.304688 L 26.605469 -75.304688 L 26.605469 -77.617188 L 28.917969 -77.617188 L 28.917969 2.3125 L 4.542969 2.3125 L 4.542969 -194.304688 Z M 6.855469 -189.675781 L 6.855469 -191.988281 L 9.171875 -191.988281 L 9.171875 0 L 6.855469 0 L 6.855469 -2.3125 L 26.605469 -2.3125 L 26.605469 0 L 24.289062 0 L 24.289062 -79.933594 L 64.179688 -79.933594 L 64.179688 -77.617188 L 61.867188 -77.617188 L 61.867188 -191.988281 L 64.179688 -191.988281 L 64.179688 -189.675781 Z M 26.605469 -99.679688 L 44.15625 -99.679688 L 44.15625 -97.367188 L 41.84375 -97.367188 L 41.84375 -172.242188 L 44.15625 -172.242188 L 44.15625 -169.929688 L 26.605469 -169.929688 L 26.605469 -172.242188 L 28.917969 -172.242188 L 28.917969 -97.367188 L 26.605469 -97.367188 Z M 24.289062 -95.050781 L 24.289062 -174.558594 L 46.472656 -174.558594 L 46.472656 -95.050781 Z M 24.289062 -95.050781 "/></g></g><g style="fill:#ffffe3;fill-opacity:1;"><g transform="translate(1027.228324, 214.622309)"><path style="stroke:none" d="M 57.324219 -169.929688 L 26.605469 -169.929688 L 26.605469 -172.242188 L 28.917969 -172.242188 L 28.917969 -129.183594 L 26.605469 -129.183594 L 26.605469 -131.496094 L 59.636719 -131.496094 L 59.636719 -107.121094 L 26.605469 -107.121094 L 26.605469 -109.433594 L 28.917969 -109.433594 L 28.917969 -19.746094 L 26.605469 -19.746094 L 26.605469 -22.0625 L 59.636719 -22.0625 L 59.636719 2.3125 L 4.542969 2.3125 L 4.542969 -194.304688 L 59.636719 -194.304688 L 59.636719 -169.929688 Z M 57.324219 -174.558594 L 57.324219 -172.242188 L 55.007812 -172.242188 L 55.007812 -191.988281 L 57.324219 -191.988281 L 57.324219 -189.675781 L 6.855469 -189.675781 L 6.855469 -191.988281 L 9.171875 -191.988281 L 9.171875 0 L 6.855469 0 L 6.855469 -2.3125 L 57.324219 -2.3125 L 57.324219 0 L 55.007812 0 L 55.007812 -19.746094 L 57.324219 -19.746094 L 57.324219 -17.433594 L 24.289062 -17.433594 L 24.289062 -111.75 L 57.324219 -111.75 L 57.324219 -109.433594 L 55.007812 -109.433594 L 55.007812 -129.183594 L 57.324219 -129.183594 L 57.324219 -126.867188 L 24.289062 -126.867188 L 24.289062 -174.558594 Z M 57.324219 -174.558594 "/></g></g><g style="fill:#ffffe3;fill-opacity:1;"><g transform="translate(1091.681952, 214.622309)"><path style="stroke:none" d="M 64.179688 -75.304688 L 47.449219 -75.304688 L 47.449219 -77.617188 L 49.710938 -78.105469 L 67.046875 2.3125 L 42.289062 2.3125 L 25.164062 -77.132812 L 27.425781 -77.617188 L 27.425781 -75.304688 L 26.605469 -75.304688 L 26.605469 -77.617188 L 28.917969 -77.617188 L 28.917969 2.3125 L 4.542969 2.3125 L 4.542969 -194.304688 L 66.492188 -194.304688 L 66.492188 -75.304688 Z M 64.179688 -79.933594 L 64.179688 -77.617188 L 61.867188 -77.617188 L 61.867188 -191.988281 L 64.179688 -191.988281 L 64.179688 -189.675781 L 6.855469 -189.675781 L 6.855469 -191.988281 L 9.171875 -191.988281 L 9.171875 0 L 6.855469 0 L 6.855469 -2.3125 L 26.605469 -2.3125 L 26.605469 0 L 24.289062 0 L 24.289062 -79.933594 L 29.296875 -79.933594 L 46.417969 -0.488281 L 44.15625 0 L 44.15625 -2.3125 L 64.179688 -2.3125 L 64.179688 0 L 61.917969 0.488281 L 44.582031 -79.933594 Z M 44.15625 -169.929688 L 26.605469 -169.929688 L 26.605469 -172.242188 L 28.917969 -172.242188 L 28.917969 -97.367188 L 26.605469 -97.367188 L 26.605469 -99.679688 L 44.15625 -99.679688 L 44.15625 -97.367188 L 41.84375 -97.367188 L 41.84375 -172.242188 L 44.15625 -172.242188 Z M 46.472656 -174.558594 L 46.472656 -95.050781 L 24.289062 -95.050781 L 24.289062 -174.558594 Z M 46.472656 -174.558594 "/></g></g></g></svg>